<?xml version="1.0" standalone="no"?>
<!DOCTYPE svg PUBLIC "-//W3C//DTD SVG 20010904//EN"
 "http://www.w3.org/TR/2001/REC-SVG-20010904/DTD/svg10.dtd">
<svg version="1.0" xmlns="http://www.w3.org/2000/svg"
 width="256.000000pt" height="256.000000pt" viewBox="0 0 256.000000 256.000000"
 preserveAspectRatio="xMidYMid meet">

<g transform="translate(0.000000,256.000000) scale(0.100000,-0.100000)"
fill="#000000" stroke="none">
<path d="M851 2525 c-379 -128 -680 -406 -821 -758 l-30 -75 0 -414 0 -413 34
-82 c144 -349 442 -622 819 -748 l105 -35 322 0 322 0 105 35 c377 126 675
399 819 748 l34 82 0 413 0 414 -30 75 c-141 352 -444 631 -823 758 l-105 35
-323 0 -324 0 -104 -35z m523 -217 c50 -50 78 -135 83 -253 9 -183 -37 -303
-162 -424 l-73 -71 25 -100 25 -100 67 0 c136 0 238 -55 286 -155 32 -65 37
-149 11 -210 -24 -57 -89 -119 -157 -150 -33 -14 -59 -29 -59 -33 0 -4 9 -45
21 -92 27 -112 35 -217 20 -263 -15 -45 -78 -102 -128 -116 -55 -16 -171 -13
-231 4 -61 18 -133 71 -146 106 -14 41 2 99 36 131 60 56 149 61 208 12 64
-54 25 -143 -70 -159 -22 -4 -40 -10 -40 -15 0 -5 14 -20 31 -34 26 -22 40
-26 97 -26 105 1 190 52 209 128 7 29 -7 138 -32 248 l-16 70 -112 -4 c-177
-7 -286 28 -388 125 -82 77 -123 170 -123 278 -1 71 3 88 31 145 41 84 118
169 252 277 58 48 107 88 109 89 2 1 -6 47 -17 101 -32 154 -35 200 -17 276
25 108 75 188 141 228 46 28 82 24 119 -13z"/>
<path d="M1256 2130 c-69 -64 -90 -124 -91 -252 0 -152 5 -153 113 -43 102
104 132 157 132 236 0 73 -19 99 -71 99 -32 0 -47 -7 -83 -40z"/>
<path d="M1095 1475 c-115 -82 -175 -139 -211 -201 -26 -44 -29 -58 -29 -139
0 -80 3 -95 28 -137 33 -57 99 -109 175 -140 48 -18 77 -22 179 -22 67 -1 124
2 127 5 4 3 -15 92 -41 198 -43 173 -50 191 -69 191 -52 0 -134 -87 -134 -142
0 -40 33 -101 72 -132 41 -32 31 -33 -30 -2 -82 42 -132 109 -132 177 0 68 73
156 160 193 25 11 47 21 49 22 5 4 -42 194 -48 193 -4 0 -46 -29 -96 -64z"/>
<path d="M1315 1213 c26 -119 92 -347 101 -350 6 -2 31 11 55 29 85 66 101
171 38 258 -34 47 -114 90 -167 90 -31 0 -33 -2 -27 -27z"/>
</g>
</svg>
