<svg xmlns="http://www.w3.org/2000/svg" xmlns:xlink="http://www.w3.org/1999/xlink" version="1.1" id="Layer_1" x="0px" y="0px" width="100%" viewBox="0 0 500 500" enable-background="new 0 0 500 500" xml:space="preserve">
<path fill="#C3936A" opacity="1.000000" stroke="none" d=" M501.000000,267.000000   C501.000000,267.750000 501.000000,268.500000 500.612183,269.612549   C496.486603,274.543793 497.406616,279.824768 497.896973,285.443176   C497.163544,290.241882 496.787872,294.726807 495.685211,299.025269   C490.808319,318.037231 485.172546,336.710815 476.515961,354.527161   C464.618530,379.013580 449.117584,400.705200 430.259064,420.188202   C413.404724,437.600616 394.324646,452.290009 372.922394,463.329651   C357.351654,471.361267 340.636200,477.308472 324.123779,483.344147   C305.505035,490.149750 285.940155,493.226379 266.216492,493.810547   C244.508774,494.453522 222.671646,494.968231 201.358292,489.231110   C187.857910,485.597107 174.075058,482.735962 160.957108,478.028412   C144.869278,472.255066 129.758942,464.232880 115.201050,455.044373   C87.251854,437.403748 64.035118,415.004150 44.978714,388.148376   C29.336573,366.104279 17.838549,341.948883 10.648614,315.999298   C6.878615,302.392761 5.415855,288.149536 2.812179,274.212341   C2.598519,273.068634 1.622035,272.067413 1.000000,271.000000   C1.000000,268.958252 1.000000,266.916504 1.363245,264.218018   C1.817991,259.075317 2.071134,254.585129 1.953055,250.104721   C1.846570,246.064240 1.333664,242.034485 1.000000,238.000000   C1.000000,235.958252 1.000000,233.916504 1.308582,231.781784   C2.058111,230.500336 2.774873,229.339767 2.898314,228.119186   C4.548753,211.799484 7.781202,195.867676 12.656262,180.148849   C20.943192,153.429047 33.509125,129.017578 50.277699,106.736107   C65.400452,86.641541 83.268181,69.408958 103.725662,54.660835   C121.853737,41.592018 141.410797,31.324667 162.158844,23.491350   C181.205948,16.300222 201.000275,11.574018 221.347260,9.383662   C244.379486,6.904237 267.427643,6.991893 290.248383,10.546512   C308.817383,13.438868 326.907135,18.501467 344.551727,25.421158   C373.732361,36.864956 399.711761,53.241611 422.684265,74.293938   C446.597443,96.208260 465.159821,122.269928 478.760559,151.692947   C488.364960,172.470612 494.576660,194.360504 497.752502,217.358734   C497.772919,221.237411 497.766205,224.818680 498.272614,228.325851   C498.417267,229.327621 500.049774,230.114563 501.000000,231.000000   C501.000000,232.066437 501.000000,233.132874 500.633484,234.727448   C499.878632,236.142349 499.162079,237.025742 499.152863,237.916428   C499.063538,246.561203 499.027191,255.208298 499.172638,263.851410   C499.190491,264.910889 500.362732,265.950928 501.000000,267.000000  M247.602615,194.131302   C260.586212,182.557251 271.836304,169.763596 278.029877,153.085220   C283.154205,139.286224 284.766602,125.098038 284.189453,110.507202   C283.574799,94.968262 280.408173,80.189110 271.102051,67.379829   C262.852173,56.024353 254.050964,55.936512 244.835846,62.531559   C232.864136,71.099426 226.383743,83.394455 222.469818,96.902725   C220.020981,105.354492 218.105637,114.573296 218.847839,123.198647   C220.067200,137.369598 223.341080,151.403229 226.387772,165.355194   C227.397110,169.977402 226.531311,172.362930 222.869247,175.264923   C205.742859,188.836624 188.393188,202.183777 174.042114,218.899826   C159.034149,236.381027 151.416794,255.753937 157.040131,279.114197   C165.463943,314.108124 195.061722,334.659882 228.343292,337.929199   C241.589767,339.230469 255.108688,337.758606 270.089661,337.524414   C272.671570,354.079468 275.690857,371.769989 277.987396,389.553833   C278.454224,393.168793 276.782043,397.419006 275.096619,400.891296   C267.324493,416.903320 242.308609,421.575470 227.749115,416.864044   C222.153702,415.053345 217.844086,411.896942 217.183594,406.377594   C223.355652,404.331207 229.407593,403.328247 234.392746,400.466797   C245.390320,394.154114 245.660934,381.230591 235.535339,373.925507   C224.065628,365.650665 204.457977,368.349274 196.119080,379.808563   C188.192047,390.701904 188.286667,404.362305 202.289230,413.065094   C220.415665,424.330872 240.090179,427.417114 260.589905,421.800995   C272.685608,418.487213 281.577087,410.855194 284.931641,397.921906   C287.884460,386.537415 285.356598,375.545685 283.057983,364.538818   C280.973511,354.557648 278.532318,344.651001 276.564636,336.087616   C285.452332,330.892639 294.295166,326.726166 301.994232,321.017181   C318.550171,308.740723 324.528442,284.570099 314.383484,264.737122   C303.874084,244.191757 280.830261,234.524948 259.088287,236.094498   C256.185913,236.304031 253.312759,236.918030 250.470245,237.338181   C248.028961,228.398972 245.837067,220.135086 243.510254,211.909363   C240.114258,199.903900 240.072937,199.915588 247.602615,194.131302  z"/>
<path fill="#transparent" opacity="1.000000" stroke="none" d=" M497.920349,217.033157   C494.576660,194.360504 488.364960,172.470612 478.760559,151.692947   C465.159821,122.269928 446.597443,96.208260 422.684265,74.293938   C399.711761,53.241611 373.732361,36.864956 344.551727,25.421158   C326.907135,18.501467 308.817383,13.438868 290.248383,10.546512   C267.427643,6.991893 244.379486,6.904237 221.347260,9.383662   C201.000275,11.574018 181.205948,16.300222 162.158844,23.491350   C141.410797,31.324667 121.853737,41.592018 103.725662,54.660835   C83.268181,69.408958 65.400452,86.641541 50.277699,106.736107   C33.509125,129.017578 20.943192,153.429047 12.656262,180.148849   C7.781202,195.867676 4.548753,211.799484 2.898314,228.119186   C2.774873,229.339767 2.058111,230.500336 1.308582,231.344406   C1.000000,154.368423 1.000000,77.736839 1.000000,1.052629   C167.555298,1.052629 334.110596,1.052629 501.000000,1.052629   C501.000000,76.020561 501.000000,151.041626 500.739594,226.986542   C499.626221,224.284637 498.773285,220.658890 497.920349,217.033157  z"/>
<path fill="#transparent" opacity="1.000000" stroke="none" d=" M1.000000,271.468658   C1.622035,272.067413 2.598519,273.068634 2.812179,274.212341   C5.415855,288.149536 6.878615,302.392761 10.648614,315.999298   C17.838549,341.948883 29.336573,366.104279 44.978714,388.148376   C64.035118,415.004150 87.251854,437.403748 115.201050,455.044373   C129.758942,464.232880 144.869278,472.255066 160.957108,478.028412   C174.075058,482.735962 187.857910,485.597107 201.358292,489.231110   C222.671646,494.968231 244.508774,494.453522 266.216492,493.810547   C285.940155,493.226379 305.505035,490.149750 324.123779,483.344147   C340.636200,477.308472 357.351654,471.361267 372.922394,463.329651   C394.324646,452.290009 413.404724,437.600616 430.259064,420.188202   C449.117584,400.705200 464.618530,379.013580 476.515961,354.527161   C485.172546,336.710815 490.808319,318.037231 495.685211,299.025269   C496.787872,294.726807 497.163544,290.241882 498.135803,285.106171   C498.492523,281.963623 498.357727,279.516449 498.779877,277.169403   C498.987152,276.017090 500.227264,275.050568 501.000000,274.000000   C501.000000,349.632050 501.000000,425.264130 501.000000,500.948090   C334.444183,500.948090 167.888367,500.948090 1.000000,500.948090   C1.000000,424.646088 1.000000,348.291718 1.000000,271.468658  z"/>
<path fill="#transparent" opacity="1.000000" stroke="none" d=" M501.000000,266.625000   C500.362732,265.950928 499.190491,264.910889 499.172638,263.851410   C499.027191,255.208298 499.063538,246.561203 499.152863,237.916428   C499.162079,237.025742 499.878632,236.142349 500.633484,235.127777   C501.000000,235.444443 501.000000,235.888901 500.600647,236.835449   C500.146545,241.753616 499.944763,246.174133 500.077942,250.584534   C500.213165,255.061554 500.678986,259.528595 501.000000,264.000000   C501.000000,264.750000 501.000000,265.500000 501.000000,266.625000  z"/>
<path fill="#transparent" opacity="1.000000" stroke="none" d=" M501.000000,273.600006   C500.227264,275.050568 498.987152,276.017090 498.779877,277.169403   C498.357727,279.516449 498.492523,281.963623 498.158997,284.706573   C497.406616,279.824768 496.486603,274.543793 500.612183,269.987549   C501.000000,271.066681 501.000000,272.133331 501.000000,273.600006  z"/>
<path fill="transparent" opacity="1.000000" stroke="none" d=" M501.000000,263.531342   C500.678986,259.528595 500.213165,255.061554 500.077942,250.584534   C499.944763,246.174133 500.146545,241.753616 500.600647,237.168762   C501.000000,245.687561 501.000000,254.375122 501.000000,263.531342  z"/>
<path fill="transparent" opacity="1.000000" stroke="none" d=" M497.752533,217.358734   C498.773285,220.658890 499.626221,224.284637 500.739594,227.455200   C501.000000,228.066666 501.000000,229.133347 501.000000,230.600006   C500.049774,230.114563 498.417267,229.327621 498.272614,228.325851   C497.766205,224.818680 497.772919,221.237411 497.752533,217.358734  z"/>
<path fill="#4F351A" opacity="1.000000" stroke="none" d=" M1.000000,238.468658   C1.333664,242.034485 1.846570,246.064240 1.953055,250.104721   C2.071134,254.585129 1.817991,259.075317 1.363245,263.780640   C1.000000,255.645767 1.000000,247.291534 1.000000,238.468658  z"/>
<path fill="transparent" opacity="1.000000" stroke="none" d=" M247.359314,194.391846   C240.072937,199.915588 240.114258,199.903900 243.510254,211.909363   C245.837067,220.135086 248.028961,228.398972 250.470245,237.338181   C253.312759,236.918030 256.185913,236.304031 259.088287,236.094498   C280.830261,234.524948 303.874084,244.191757 314.383484,264.737122   C324.528442,284.570099 318.550171,308.740723 301.994232,321.017181   C294.295166,326.726166 285.452332,330.892639 276.564636,336.087616   C278.532318,344.651001 280.973511,354.557648 283.057983,364.538818   C285.356598,375.545685 287.884460,386.537415 284.931641,397.921906   C281.577087,410.855194 272.685608,418.487213 260.589905,421.800995   C240.090179,427.417114 220.415665,424.330872 202.289230,413.065094   C188.286667,404.362305 188.192047,390.701904 196.119080,379.808563   C204.457977,368.349274 224.065628,365.650665 235.535339,373.925507   C245.660934,381.230591 245.390320,394.154114 234.392746,400.466797   C229.407593,403.328247 223.355652,404.331207 217.183594,406.377594   C217.844086,411.896942 222.153702,415.053345 227.749115,416.864044   C242.308609,421.575470 267.324493,416.903320 275.096619,400.891296   C276.782043,397.419006 278.454224,393.168793 277.987396,389.553833   C275.690857,371.769989 272.671570,354.079468 270.089661,337.524414   C255.108688,337.758606 241.589767,339.230469 228.343292,337.929199   C195.061722,334.659882 165.463943,314.108124 157.040131,279.114197   C151.416794,255.753937 159.034149,236.381027 174.042114,218.899826   C188.393188,202.183777 205.742859,188.836624 222.869247,175.264923   C226.531311,172.362930 227.397110,169.977402 226.387772,165.355194   C223.341080,151.403229 220.067200,137.369598 218.847839,123.198647   C218.105637,114.573296 220.020981,105.354492 222.469818,96.902725   C226.383743,83.394455 232.864136,71.099426 244.835846,62.531559   C254.050964,55.936512 262.852173,56.024353 271.102051,67.379829   C280.408173,80.189110 283.574799,94.968262 284.189453,110.507202   C284.766602,125.098038 283.154205,139.286224 278.029877,153.085220   C271.836304,169.763596 260.586212,182.557251 247.359314,194.391846  M178.349487,301.023804   C182.794312,309.928619 189.793304,316.646576 198.171936,321.445526   C214.024658,330.525391 231.421249,333.973602 249.624649,332.915924   C255.455978,332.577087 261.243317,331.480957 267.625946,330.657074   C261.506165,306.180389 255.678894,282.873657 249.746094,259.144836   C238.156906,261.836304 228.583481,266.646698 224.258209,277.647675   C217.868027,293.900574 228.042419,304.071594 239.591797,313.636017   C238.375778,313.861908 237.816376,314.158752 237.428207,314.009705   C227.875137,310.341003 219.020554,305.428558 212.569824,297.330841   C207.038834,290.387695 203.616714,282.398041 206.051529,273.270447   C208.789856,263.005066 214.621765,254.659821 223.693970,249.019379   C230.094879,245.039734 236.887024,241.689377 244.152298,237.702606   C241.437378,226.880676 238.576126,215.475357 235.594574,203.590576   C230.318832,207.122635 225.561996,210.093491 221.033722,213.379318   C207.908600,222.903214 194.286575,231.671188 183.846756,244.612915   C171.595123,259.800629 169.794968,284.804626 178.349487,301.023804  M229.765640,148.742981   C230.603851,154.525803 231.442047,160.308624 232.296310,166.202362   C233.344711,166.001480 233.935043,166.062866 234.268799,165.799301   C247.750656,155.153046 260.195709,143.447647 269.240784,128.701309   C273.727478,121.386574 275.801788,113.055908 274.905334,104.410988   C274.314240,98.710991 273.742584,92.547981 267.138550,89.962585   C260.728455,87.453110 255.093887,89.362305 249.915237,93.344345   C249.125824,93.951363 248.334396,94.565788 247.612732,95.249443   C232.427429,109.634491 228.486847,127.880493 229.765640,148.742981  M262.599213,282.112671   C266.477448,297.333130 270.355713,312.553619 274.261200,327.880981   C293.149567,320.348938 305.174347,303.742706 297.766571,283.227600   C291.556915,266.030579 271.674194,256.400330 255.951004,259.057678   C258.060364,266.513733 260.161224,273.939728 262.599213,282.112671  z"/>
<path fill="#C1926A" opacity="1.000000" stroke="none" d=" M178.187836,300.684784   C169.794968,284.804626 171.595123,259.800629 183.846756,244.612915   C194.286575,231.671188 207.908600,222.903214 221.033722,213.379318   C225.561996,210.093491 230.318832,207.122635 235.594574,203.590576   C238.576126,215.475357 241.437378,226.880676 244.152298,237.702606   C236.887024,241.689377 230.094879,245.039734 223.693970,249.019379   C214.621765,254.659821 208.789856,263.005066 206.051529,273.270447   C203.616714,282.398041 207.038834,290.387695 212.569824,297.330841   C219.020554,305.428558 227.875137,310.341003 237.428207,314.009705   C237.816376,314.158752 238.375778,313.861908 239.591797,313.636017   C228.042419,304.071594 217.868027,293.900574 224.258209,277.647675   C228.583481,266.646698 238.156906,261.836304 249.746094,259.144836   C255.678894,282.873657 261.506165,306.180389 267.625946,330.657074   C261.243317,331.480957 255.455978,332.577087 249.624649,332.915924   C231.421249,333.973602 214.024658,330.525391 198.171936,321.445526   C189.793304,316.646576 182.794312,309.928619 178.187836,300.684784  z"/>
<path fill="#C1916A" opacity="1.000000" stroke="none" d=" M229.671265,148.296143   C228.486847,127.880493 232.427429,109.634491 247.612732,95.249443   C248.334396,94.565788 249.125824,93.951363 249.915237,93.344345   C255.093887,89.362305 260.728455,87.453110 267.138550,89.962585   C273.742584,92.547981 274.314240,98.710991 274.905334,104.410988   C275.801788,113.055908 273.727478,121.386574 269.240784,128.701309   C260.195709,143.447647 247.750656,155.153046 234.268799,165.799301   C233.935043,166.062866 233.344711,166.001480 232.296310,166.202362   C231.442047,160.308624 230.603851,154.525803 229.671265,148.296143  z"/>
<path fill="#C0916A" opacity="1.000000" stroke="none" d=" M262.430664,281.739197   C260.161224,273.939728 258.060364,266.513733 255.951004,259.057678   C271.674194,256.400330 291.556915,266.030579 297.766571,283.227600   C305.174347,303.742706 293.149567,320.348938 274.261200,327.880981   C270.355713,312.553619 266.477448,297.333130 262.430664,281.739197  z"/>
</svg>